HIERARCHY
ROOT Hips
{
	OFFSET -3.958830 18.904000 13.208200
	CHANNELS 6 Xposition Yposition Zposition Zrotation Yrotation Xrotation 
	JOINT LHipJoint
	{
		OFFSET 0.000000 0.000000 0.000000
		CHANNELS 3 Zrotation Yrotation Xrotation
		JOINT LeftUpLeg
		{
			OFFSET 1.800000 -1.400000 0.085000
			CHANNELS 3 Zrotation Yrotation Xrotation
			JOINT LeftLeg
			{
				OFFSET 2.215000 -6.000000 0.000000
				CHANNELS 3 Zrotation Yrotation Xrotation
				JOINT LeftFoot
				{
					OFFSET 2.500000 -6.900000 0.000000
					CHANNELS 3 Zrotation Yrotation Xrotation
					JOINT LeftToeBase
					{
						OFFSET 0.200000 -0.500000 1.950000
						CHANNELS 3 Zrotation Yrotation Xrotation
						End Site
						{
							OFFSET 0.000000 0.000000 0.000000
						}
					}
				}
			}
		}
	}
	JOINT RHipJoint
	{
		OFFSET 0.000000 0.000000 0.000000
		CHANNELS 3 Zrotation Yrotation Xrotation
		JOINT RightUpLeg
		{
			OFFSET -1.800000 -1.400000 0.085000
			CHANNELS 3 Zrotation Yrotation Xrotation
			JOINT RightLeg
			{
				OFFSET -2.215000 -6.000000 0.000000
				CHANNELS 3 Zrotation Yrotation Xrotation
				JOINT RightFoot
				{
					OFFSET -2.500000 -6.900000 0.000000
					CHANNELS 3 Zrotation Yrotation Xrotation
					JOINT RightToeBase
					{
						OFFSET -0.200000 -0.500000 1.950000
						CHANNELS 3 Zrotation Yrotation Xrotation
						End Site
						{
							OFFSET 0.000000 0.000000 0.000000
						}
					}
				}
			}
		}
	}
	JOINT LowerBack
	{
		OFFSET 0.000000 0.000000 0.000000
		CHANNELS 3 Zrotation Yrotation Xrotation
		JOINT Spine
		{
			OFFSET -0.087000 1.940000 -0.288900
			CHANNELS 3 Zrotation Yrotation Xrotation
			JOINT Spine1
			{
				OFFSET 0.000000 1.950000 0.060000
				CHANNELS 3 Zrotation Yrotation Xrotation
				JOINT Neck
				{
					OFFSET 0.000000 0.000000 0.000000
					CHANNELS 3 Zrotation Yrotation Xrotation
					JOINT Neck1
					{
						OFFSET 0.000000 1.600000 0.340000
						CHANNELS 3 Zrotation Yrotation Xrotation
						JOINT Head
						{
							OFFSET 0.000000 1.667000 -0.240000
							CHANNELS 3 Zrotation Yrotation Xrotation
							End Site
							{
								OFFSET 0.000000 0.000000 0.000000
							}
						}
					}
				}
				JOINT LeftShoulder
				{
					OFFSET 0.000000 0.000000 0.000000
					CHANNELS 3 Zrotation Yrotation Xrotation
					JOINT LeftArm
					{
						OFFSET 2.700000 1.550000 -0.730000
						CHANNELS 3 Zrotation Yrotation Xrotation
						JOINT LeftForeArm
						{
							OFFSET 5.450000 0.000000 0.000000
							CHANNELS 3 Zrotation Yrotation Xrotation
							JOINT LeftHand
							{
								OFFSET 3.450000 0.000000 0.000000
								CHANNELS 3 Zrotation Yrotation Xrotation
								JOINT LeftHandIndex1
								{
									OFFSET 0.750000 0.000000 0.000000
									CHANNELS 3 Zrotation Yrotation Xrotation
									End Site
									{
										OFFSET 0.000000 0.000000 0.000000
									}
								}
							}
						}
					}
				}
				JOINT RightShoulder
				{
					OFFSET 0.000000 0.000000 0.000000
					CHANNELS 3 Zrotation Yrotation Xrotation
					JOINT RightArm
					{
						OFFSET -2.700000 1.550000 -0.730000
						CHANNELS 3 Zrotation Yrotation Xrotation
						JOINT RightForeArm
						{
							OFFSET -5.450000 0.000000 0.000000
							CHANNELS 3 Zrotation Yrotation Xrotation
							JOINT RightHand
							{
								OFFSET -3.450000 0.000000 0.000000
								CHANNELS 3 Zrotation Yrotation Xrotation
								JOINT RightHandIndex1
								{
									OFFSET -0.750000 0.000000 0.000000
									CHANNELS 3 Zrotation Yrotation Xrotation
									End Site
									{
										OFFSET 0.000000 0.000000 0.000000
									}
								}
							}
						}
					}
				}
			}
		}
	}
}
MOTION
Frames: 9
Frame Time: 0.016667
0.308060 16.180420 -1.860310 0.216176 2.687568 1.619800 -15.071094 13.112281 2.493774 2.048108 -1.740590 -14.000120 -5.033478 7.426479 25.243044 -0.859477 5.951560 2.986552 0.458050 -0.276380 0.113270 18.447696 -11.072439 2.660238 -1.705928 2.392811 -18.244687 5.045768 -4.558990 14.791269 0.167840 -3.573555 3.667346 0.244650 0.998770 0.330670 -4.020002 -0.772595 -6.340758 9.894567 0.267864 1.489349 -2.482509 0.269865 11.384967 0.698858 -2.393993 -7.596038 -3.672664 0.305855 20.795208 -4.026570 -2.314070 2.234820 -16.736581 0.049313 3.613134 -41.019694 14.099698 -10.351615 -42.383165 -32.766571 6.900327 -4.188293 3.358354 0.378210 0.768150 -0.741520 0.542480 15.622800 1.524447 4.198652 42.147109 -6.180994 -9.551181 69.934192 54.577299 27.281165 1.379509 -2.294568 -0.607280 0.431370 0.107460 -0.340290 
0.347660 16.058020 -1.891140 -0.063897 3.900530 1.506767 -15.055201 13.138701 2.488649 2.663486 -1.740378 -13.710876 -5.385947 7.809040 26.257735 -0.841074 6.155430 2.896620 0.512050 -0.212630 0.150220 18.460395 -11.007590 2.724325 -1.598730 3.397322 -21.637162 5.083911 -5.028318 19.813011 0.128454 -3.730155 3.570196 0.282530 0.961930 0.306070 -4.083598 -0.843574 -6.409747 10.996943 -0.552255 2.457830 -3.179515 -0.291499 10.588102 0.605358 -3.112753 -7.196467 -4.858329 0.529998 20.603876 -3.546470 -2.733910 0.876760 -18.091739 0.215932 3.201407 -40.719570 13.671831 -10.366730 -40.274059 -34.767559 7.109478 -4.135358 3.338980 0.414320 0.721110 -0.709720 0.552330 17.030309 1.692073 3.987747 40.843042 -6.538057 -9.964598 65.399720 54.128569 24.794119 1.365752 -2.263742 -0.607980 0.458600 0.079820 -0.344910 
0.395670 15.941380 -1.936100 -0.338066 5.329675 0.925805 -15.036093 13.118795 2.475503 3.188073 -1.824624 -13.310621 -5.745973 8.393264 28.073696 -0.798395 6.501593 2.738833 0.537950 -0.214640 0.194920 18.484895 -10.813314 2.944266 -2.863249 4.988005 -26.120811 6.663727 -6.532001 27.342766 -0.029090 -4.455173 3.251190 0.267880 0.892590 0.287600 -4.174260 -0.987665 -6.635979 12.338252 -1.450051 4.506601 -3.998885 -0.771945 9.217379 0.597167 -3.869815 -6.834741 -6.296719 0.488465 21.327525 -2.969200 -3.415040 -0.804650 -20.214239 -0.076233 2.661133 -39.881429 12.792866 -10.181287 -37.811644 -36.391596 7.055810 -4.064318 3.294855 0.505370 0.638070 -0.658450 0.530900 18.947610 2.292180 4.032542 39.360409 -7.342776 -10.775938 60.162402 53.921003 22.249144 1.359169 -2.180787 -0.611740 0.469970 0.082140 -0.375730 
0.431340 15.835690 -1.991680 -0.561580 7.025587 -0.210903 -15.024946 13.039460 2.435519 3.803073 -1.990546 -12.858428 -6.089243 9.082630 30.297219 -0.714667 6.885328 2.549323 0.578320 -0.184990 0.241270 18.522028 -10.441355 3.380500 -5.398626 6.897495 -31.229399 9.148284 -9.236588 36.544775 -0.369707 -5.905483 2.685056 0.251210 0.786660 0.268740 -4.266901 -1.256337 -7.066978 13.448326 -2.536840 8.069839 -4.947338 -1.249294 6.903685 0.611206 -4.656595 -6.334236 -7.945432 0.481824 22.709561 -1.770940 -4.289110 -3.435450 -23.255069 -0.313512 1.831679 -37.776104 11.792358 -9.773936 -35.278933 -38.746699 7.275143 -3.946769 3.267167 0.613410 0.519290 -0.569680 0.508030 21.663068 2.840514 4.060710 37.880742 -8.464940 -11.665915 54.048113 53.395619 19.349802 1.362572 -2.081369 -0.589220 0.471200 0.072700 -0.397190 
0.459990 15.740180 -2.050800 -0.643346 8.938695 -1.799766 -15.037591 12.916418 2.392784 4.312825 -2.319841 -12.412633 -6.332856 9.793220 32.802555 -0.601846 7.303811 2.352638 0.603420 -0.178040 0.305090 18.548225 -9.947772 3.956455 -9.519780 8.281585 -36.292507 12.873670 -13.522426 45.540856 -0.863976 -7.905700 1.979694 0.213370 0.661330 0.245610 -4.296909 -1.633541 -7.641590 13.975912 -3.705226 12.711543 -5.955463 -1.741931 3.994999 0.878706 -5.069497 -5.976788 -9.178261 0.468312 25.038955 -0.876750 -4.740760 -5.949380 -26.460579 -0.715961 1.020773 -35.540290 10.874661 -9.608501 -32.415594 -41.901862 7.538288 -3.809785 3.247068 0.727740 0.394160 -0.472020 0.471450 24.092526 3.294616 4.147906 37.144944 -9.545897 -12.557481 46.574100 51.941188 15.715762 1.374712 -1.967257 -0.568150 0.458040 0.056630 -0.431350 
0.481050 15.661700 -2.117800 -1.033560 10.898529 -4.028253 -15.052359 12.822726 2.350075 5.245010 -2.737303 -12.017423 -6.319038 10.520324 35.647877 -0.438889 7.771516 2.161883 0.568810 -0.216150 0.324920 18.565624 -9.469290 4.517641 -13.667095 8.790349 -40.458073 16.204195 -18.471599 53.364485 -1.386741 -9.901733 1.369480 0.142380 0.561150 0.194390 -4.300829 -2.048536 -8.207837 14.760819 -5.009929 18.051656 -7.129097 -2.320637 0.564049 1.281718 -5.520873 -5.892803 -10.897287 0.628674 28.902880 -0.071800 -5.233680 -7.350830 -29.608147 -1.249031 0.247915 -33.409887 9.597496 -9.406457 -29.610322 -44.769412 7.716470 -3.680128 3.201748 0.813700 0.285750 -0.396260 0.427850 26.234879 3.897467 4.551051 37.099556 -10.798153 -13.493432 39.270106 51.470194 12.847480 1.403781 -1.837517 -0.558610 0.458420 0.052860 -0.450940 
0.499670 15.603020 -2.181040 -1.376476 12.471626 -6.683153 -15.078196 12.777858 2.322912 5.990265 -3.167001 -11.409839 -6.008775 11.071513 38.470760 -0.258527 8.177224 1.988723 0.581100 -0.192900 0.370610 18.561752 -9.103244 4.929382 -17.193958 8.515291 -43.257167 18.062400 -22.886373 59.814962 -1.865670 -11.500721 0.924170 0.094600 0.433430 0.158530 -4.253810 -2.415100 -8.627486 15.284627 -6.133635 23.268537 -8.335488 -2.810225 -2.409972 1.840988 -5.685499 -6.092496 -12.494293 0.873689 33.840302 1.015240 -5.789550 -9.157290 -32.512132 -2.252231 -0.245940 -31.728120 8.278107 -9.570174 -27.207991 -47.595355 7.800803 -3.513453 3.198958 0.891970 0.166250 -0.293140 0.399070 27.937413 4.840045 5.216409 37.671023 -12.104998 -14.605785 32.147741 51.362985 10.195734 1.435025 -1.735034 -0.514200 0.437600 0.013740 -0.460790 
0.510100 15.551880 -2.224180 -1.412486 13.870718 -8.541097 -15.119357 12.647826 2.371330 6.641230 -3.899818 -11.671233 -6.394446 11.999433 41.658753 -0.063218 8.742659 1.759027 0.586290 -0.166290 0.402080 18.558825 -8.782849 5.207128 -19.928182 7.743684 -45.730103 18.369224 -26.170216 64.951131 -2.214557 -12.631400 0.630005 0.060440 0.338300 0.139010 -4.178863 -2.659119 -8.935429 14.999877 -6.850905 27.011463 -9.361334 -3.266161 -4.580838 2.445831 -5.399989 -6.280530 -13.061238 1.042409 37.960576 1.982180 -6.039020 -10.908890 -34.481411 -2.985022 -0.618898 -30.735166 6.897054 -9.878746 -25.180625 -50.547281 7.870106 -3.399857 3.202471 0.942220 0.083160 -0.209070 0.368700 28.720024 5.254123 5.727581 39.142005 -13.105075 -15.519412 26.685911 50.966853 8.164484 1.462136 -1.631022 -0.471140 0.423490 -0.007100 -0.464870 
0.515840 15.511000 -2.248830 -1.461389 14.426715 -9.612629 -15.131809 12.471320 2.446099 7.423357 -4.547625 -12.268950 -7.398934 13.107835 44.011259 0.070161 9.297744 1.548228 0.588370 -0.156830 0.404200 18.586984 -8.568668 5.354891 -21.241353 7.212239 -47.746354 17.366101 -27.783272 68.723393 -2.421088 -13.285923 0.471242 0.044050 0.299820 0.130660 -4.181278 -2.707826 -9.117641 15.036333 -7.322359 29.019963 -10.440892 -3.580314 -5.647175 2.906938 -5.556588 -6.396598 -14.076323 1.652091 40.739950 3.134030 -6.184450 -12.391740 -35.298781 -3.017822 -1.041117 -30.758078 5.248720 -10.068165 -24.666196 -53.988769 8.510652 -3.344670 3.193133 0.996910 0.033710 -0.160360 0.360270 28.576474 5.266811 6.024449 40.584963 -13.320645 -15.894965 23.427219 50.326826 7.026788 1.470638 -1.538809 -0.462770 0.433490 -0.005360 -0.468800 
